<svg xmlns="http://www.w3.org/2000/svg" width="217.896" height="36.214" viewBox="0 0 217.896 36.214">
  <g id="그룹_68" data-name="그룹 68" transform="translate(-255.104 -22)">
    <g id="그룹_3" data-name="그룹 3" transform="translate(255.104 22)">
      <path id="패스_1" data-name="패스 1" d="M69.3,55.911a15.822,15.822,0,0,1-12.048-3.138c-4.9-3.43-9.044-6.652-15.841-5.958-5.387.741-8.93,3.6-12.328,7.4,3.387-1.641,7.131-2.356,10.929-.933,4.846,1.816,6.82,4.285,10.4,7.531a16.353,16.353,0,0,0,13.794,4.4c7.9-1.1,13.528-8.53,14.694-15.694-3,3.7-5.8,5.7-9.6,6.4M56.4,62.8a4.112,4.112,0,1,1,4.112-4.113A4.114,4.114,0,0,1,56.4,62.8" transform="translate(-22.151 -35.586)" fill="#2a7dc2"/>
      <path id="패스_2" data-name="패스 2" d="M31.554,88.242c-4.718-2.523-7.7-6.908-12.1-9.4C11.658,74.367,4.4,79.179,0,85.276c6.3-3.4,11.762-2.431,17.526,3.532a17.989,17.989,0,0,0,9.43,5.631c6.5,1.4,13.794-.1,18.192-5.4-4.7,1.5-9.3,1.5-13.594-.8M22.573,90.3a3,3,0,1,1,3-3,3,3,0,0,1-3,3" transform="translate(0 -58.72)" fill="#004a9c"/>
      <path id="패스_3" data-name="패스 3" d="M155.118,0A9.325,9.325,0,0,0,147.6,7.522h7.518Z" transform="translate(-112.424)" fill="#e5002b"/>
      <path id="패스_4" data-name="패스 4" d="M147.6,45.39a9.313,9.313,0,0,0,7.518,7.518V45.39Z" transform="translate(-112.425 -34.573)" fill="#e5002b"/>
      <path id="패스_5" data-name="패스 5" d="M200.479,7.523A9.326,9.326,0,0,0,192.956,0V7.523Z" transform="translate(-146.971 -0.001)" fill="#e5002b"/>
      <path id="패스_6" data-name="패스 6" d="M192.955,52.908a9.314,9.314,0,0,0,7.523-7.518h-7.523Z" transform="translate(-146.971 -34.573)" fill="#e5002b"/>
    </g>
    <g id="그룹_5" data-name="그룹 5" transform="translate(319 29)">
      <path id="합치기_1" data-name="합치기 1" d="M5.007,22.053,5,17.88a1.373,1.373,0,0,0-.921-1.338l-.062-.024-.131-.054v-.151l0-.652,0-.215h.2l2.683.006a1.159,1.159,0,0,1,.838.3A1.548,1.548,0,0,1,8,16.962l0,2.056v.928l13.145-.006,0,2.119ZM18.841,17.5l-.992,0h-.2v-.216l.019-9.219-4.878-.011h-.2V7.833l0-1.459V6.157h.2l4.879.011.007-3.756c0-.57-.234-.686-.466-.719l-.554,0h-.2V1.475l0-.94V.319h.2l2.582.006a1.369,1.369,0,0,1,1.047.4,1.675,1.675,0,0,1,.385,1.188l-.021,9.982c0,2.487-.556,4.34-1.635,5.5l-.027.032-.061.07ZM.506,13.573l-.034-.088s-.377-.947-.38-.952L.065,12.46,0,12.283l.157-.09.072-.043c3-1.689,5.016-3.493,6-5.358a5.771,5.771,0,0,0,.709-2.6L1.67,4.182h-.2V3.964l0-1.662V2.087h.2L7.057,2.1V1.984c0-.668-.259-.692-.356-.7H6.1l0-.217V0h.2L8.811.008a1.118,1.118,0,0,1,1.249,1.15l0,.948,5.079.011h.2v.217l0,1.665v.216h-.2L9.969,4.2c-.007.09-.017.184-.028.29-.023.236-.053.528-.09,1l-.044.508a30.982,30.982,0,0,0,6.073,6.13l.068.059.143.123-.1.164-.042.067-.594.942-.049.08-.1.158-.16-.079-.091-.045A21.622,21.622,0,0,1,8.773,8.876l-.054-.062L8.4,8.473a14.819,14.819,0,0,1-7.554,5.19l-.1.033-.177.061Z" transform="translate(0 0)" fill="#808285"/>
      <path id="합치기_5" data-name="합치기 5" d="M21.3,21.609,5.626,21.576h-.2l-.006-.211L5.37,19.149l-.006-.018v-.044l0-1.686a1.37,1.37,0,0,0-.93-1.337l-.056-.025-.128-.054v-.147l0-.65v-.216h.2l2.684,0a1.18,1.18,0,0,1,.835.3,1.551,1.551,0,0,1,.389,1.208l0,2.058v.928l12.943.026h.2v.216L21.5,21.394v.216ZM19.123,16.9H17.93v-.217l.029-14.592c0-.564-.233-.677-.466-.711H16.74V1.16l0-.943V0h.2l2.606.008a1.354,1.354,0,0,1,1.023.4,1.67,1.67,0,0,1,.381,1.189L20.95,5.367l2.892.006h.2v.215l0,1.451v.217h-.2l-2.892,0-.012,4.3a7.6,7.6,0,0,1-1.644,5.261l-.029.03L19.2,16.9ZM.712,13.3l-.053-.079-.518-.782L.1,12.374,0,12.217l.135-.125.058-.054a37.372,37.372,0,0,0,3.39-3.461,20.734,20.734,0,0,0,2.748-4,5.652,5.652,0,0,0,.76-2.222c-.009-.075-.025-.2-.337-.229l-.583,0h-.2V1.912l0-1.13V.566h.2l3.11.008c1.154,0,1.458.555,1.511,1.031a5.748,5.748,0,0,1-.76,2.175L9.567,4.79c.19.268.556.8.572.826a34.964,34.964,0,0,0,5.24,5.608l.064.058.155.142-.135.164-.056.068-.711.86-.063.066-.111.118-.135-.085s-.074-.046-.07-.044A21.767,21.767,0,0,1,8.438,7.543s-.326-.4-.326-.4l-.005-.007a24.425,24.425,0,0,1-7.043,6.184l-.087.05-.159.093Z" transform="translate(87.318 0.513)" fill="#808285"/>
      <path id="합치기_2" data-name="합치기 2" d="M9.682,21.744H8.765v-.216l.016-8.655L.206,12.852H0v-.216l0-1.7v-.217h.2l20.2.044h.2v.217l-.005,1.7V12.9h-.2l-8.622-.02-.008,3.56a6.864,6.864,0,0,1-1.933,5.229l-.024.021-.058.055ZM19.9,9.079l-.088-.012A19.606,19.606,0,0,1,10.9,5.675l-.471-.349a19.931,19.931,0,0,1-9.612,3.7l-.083.01-.152.021-.06-.149L.493,8.837S.117,7.883.116,7.882L.083,7.8,0,7.583l.205-.074.1-.035c.513-.181.664-.233.724-.249l-.016,0c3.528-1.173,5.835-2.3,6.858-3.333A2.622,2.622,0,0,0,8.8,2.118L1.744,2.1h-.2V0h.2L18.919.039h.2V.255l-.005,1.669,0,.216h-.2L11.8,2.123a2.195,2.195,0,0,0,.782,1.549c1.206,1.167,3.812,2.462,7.74,3.846l.1.032.218.07-.089.223-.037.09s-.381.946-.377.938l-.026.07-.057.159Z" transform="translate(22.733 1.223)" fill="#808285"/>
      <path id="합치기_3" data-name="합치기 3" d="M20.123,20.686.2,20.641H0v-.215l0-1.657v-.217h.2l4.04.01c0-1.276.016-7.819.016-7.821,0-.225-.076-.551-.751-.781L3.445,9.94,3.3,9.894V9.731l0-.686V8.829h.2l1.887,0c.262,0,.5.013.733.031a1.217,1.217,0,0,1,.883.452,1.769,1.769,0,0,1,.255,1.27L7.248,18.57l3.25.006.014-8.405c0-.281-.078-.685-.768-.956l-.062-.026L9.55,9.135V8.09h.2l1.808.006a4.652,4.652,0,0,1,.8.055c.556.088,1.207.454,1.147,1.679L13.5,18.584l6.631.013h.2v.217l0,1.655v.217ZM15.25,17.475l-.048-.066s-.27-.372-.277-.384l-.032-.049-.075-.117.071-.12s.027-.044.021-.035a9.046,9.046,0,0,0,.945-3.835c0,.009.016-9.116.019-10.626L1.906,2.211H1.7V1.995l0-1.778V0h.2L18.674.039h.2V.255l-.022,11.329a7.136,7.136,0,0,1-1.048,4.206,5.573,5.573,0,0,1-2.243,1.723l-.08.033-.144.059Z" transform="translate(43.995 1.442)" fill="#808285"/>
      <path id="합치기_6" data-name="합치기 6" d="M20.119,20.685.2,20.641H0v-.216l0-1.657v-.217h.2l4.042.009c0-1.276.015-7.819.015-7.818,0-.226-.078-.551-.754-.783l-.067-.021L3.3,9.892V9.731l0-.687V8.828h.2l1.886.006c.25,0,.5.009.735.027a1.213,1.213,0,0,1,.88.451A1.772,1.772,0,0,1,7.26,10.59l-.014,7.978,3.248.008.015-8.405c0-.281-.078-.685-.767-.957l-.063-.024-.132-.053V8.986l0-.681V8.089h.2l1.806,0a4.663,4.663,0,0,1,.8.056c.553.087,1.2.452,1.148,1.678l-.018,8.754,6.63.014h.2l0,.217,0,1.655v.217Zm-4.88-3.217-.038-.059-.28-.387-.029-.049-.068-.111.062-.114.024-.044a9.069,9.069,0,0,0,.939-3.835c0,.009.02-9.116.023-10.627L1.9,2.212H1.7V1.995L1.7.218V0h.2L18.67.039h.2V.255l-.021,11.329a7.143,7.143,0,0,1-1.045,4.207,5.582,5.582,0,0,1-2.242,1.719l-.08.036-.152.067ZM15.2,17.41Z" transform="translate(111.868 1.445)" fill="#808285"/>
      <path id="합치기_4" data-name="합치기 4" d="M9.672,21.755H8.755v-.217l.019-8.362L.2,13.156H0V12.94l0-1.7v-.217h.2l20.194.047h.2v.215l0,1.7V13.2h-.2l-8.628-.021,0,2.4c0,2.232-.672,5.046-1.954,6.119l-.031.022-.051.035Zm8.852-12.2L2.088,9.518h-.2V9.3L1.893,6.21h.2l-.011-.063h-.2L1.89,2.9c0-.764-.2-1.635-.785-1.795l-.07-.018L.878,1.049V.88l0-.664V0h.2L3.352.007A1.95,1.95,0,0,1,4.516.277l.031.011L4.58.321a1.694,1.694,0,0,1,.3,1.337l0,1.695,10.874.025c0-.379,0-1.123,0-1.123,0-.652-.223-1-.72-1.114l-.077-.015-.167-.033V.033H15l2,0c.334,0,.591.011.8.029a.98.98,0,0,1,.961.816,2.685,2.685,0,0,1,0,.827l-.009,4.377-.018,3.256v.215ZM4.876,6.3l0,1.073L15.729,7.4,15.707,6.19l.2-.006.04-.012h-.2l0-.9L4.877,5.242Z" transform="translate(65.776 0.948)" fill="#808285"/>
      <path id="패스_21" data-name="패스 21" d="M476.471,16.058l-3.264-.008a4.791,4.791,0,0,0,1.17-1.076c.716-.986,1.045-3.931,1.05-5.709l.006-3.483V5.567h-.2l-18.32-.042h-.2v.216l0,1.778v.217h.2l15.527.036-.005,2.789a17.524,17.524,0,0,1-.946,5.318l-.025.041-.079.128L456,16.012h-.2V18.14l.2,0,8.571.02-.015,8.744v.216h.2l.711,0h.066l.053-.04.03-.024a6.863,6.863,0,0,0,1.942-5.232l.009-3.657,8.9.018h.2v-.217l0-1.7v-.216Z" transform="translate(-322.674 -3.91)" fill="#808285"/>
    </g>
  </g>
</svg>
